<svg id="Layer_1" data-name="Layer 1" xmlns="http://www.w3.org/2000/svg" viewBox="0 0 960 400"><defs><style>.cls-1{fill:url(#linear-gradient)}.cls-2{fill:#fff}.cls-3{fill:#e5e5e4}.cls-4{fill:#2a3036}.cls-5{fill:#c7c6c5}.cls-6{fill:#f15d4a}.cls-7{fill:#dcdbdb}.cls-8{fill:#f4c914}.cls-9{fill:#6cbe45}.cls-10{fill:#545b6c}.cls-11{fill:#5c6471}.cls-12{fill:#fddc51}.cls-13{fill:#778193}.cls-14{fill:#3c4250}.cls-15{fill:#22272e}.cls-16{opacity:.25}.cls-17,.cls-22{fill:#010101}.cls-18{fill:#5bc3f0}.cls-19{fill:#f26755}.cls-20{fill:#55b94a}.cls-21{fill:#c895c3}.cls-22{opacity:.23}</style><linearGradient id="linear-gradient" y1="200" x2="960" y2="200" gradientUnits="userSpaceOnUse"><stop offset="0" stop-color="#ec008c"/><stop offset="1" stop-color="#f15a29"/></linearGradient></defs><title>hero-img</title><path class="cls-1" d="M0 0h960v400H0z"/><path class="cls-2" d="M883.75 280.11v-20.74H586.18v20.74a16.51 16.51 0 0 0 16.52 16.51h264.52a16.54 16.54 0 0 0 16.53-16.51z"/><path class="cls-2" d="M799 336.83c-2.22-.84-4.66-1-7-1.51-3.44-.83-6.79-2-9.36-4.53a17.36 17.36 0 0 1-4.77-9.07c-.92-4.86-1.06-10-1.49-14.94-.23-2.56-.48-6.79-.72-10.16h-81.47c-.24 3.37-.5 7.6-.73 10.16-.44 4.94-.57 10.08-1.5 14.94a17.27 17.27 0 0 1-4.76 9.07c-2.59 2.53-5.91 3.7-9.37 4.53-2.3.54-4.72.67-6.94 1.51s-3.39 2.47-1.08 4 5.29 1.41 7.86 1.41h114.56c2.57 0 5.63 0 7.87-1.41s1.01-3.21-1.1-4z"/><path class="cls-3" d="M776.45 306.78c-.23-2.56-.48-6.79-.72-10.16h-81.54c-.24 3.37-.5 7.6-.73 10.16-.44 4.94-.57 10.08-1.5 14.94a14.08 14.08 0 0 1-.54 2h87.05c-.19-.66-.4-1.32-.53-2-.94-4.86-1.06-10-1.49-14.94z"/><path class="cls-4" d="M883.75 74.31a16.55 16.55 0 0 0-16.53-16.53H602.7a16.52 16.52 0 0 0-16.52 16.53v185.06h297.57z"/><path class="cls-5" d="M694.19 296.62c-.14 2-.29 4.27-.43 6.33h82.4c-.14-2.06-.29-4.34-.43-6.33z"/><path class="cls-6" d="M600.1 71.02h269.72v188.34H600.1z"/><path class="cls-7" d="M742.05 278a7.09 7.09 0 1 1-7.09-7.08 7.08 7.08 0 0 1 7.09 7.08z"/><path class="cls-2" d="M600.1 71.02h269.72v10.3H600.1z"/><path class="cls-6" d="M610.44 76.17a2.54 2.54 0 1 1-2.54-2.53 2.54 2.54 0 0 1 2.54 2.53z"/><circle class="cls-8" cx="618.02" cy="76.17" r="2.53"/><path class="cls-9" d="M630.66 76.17a2.53 2.53 0 1 1-2.53-2.53 2.53 2.53 0 0 1 2.53 2.53z"/><path class="cls-10" d="M600.1 81.32h66.01v178.05H600.1z"/><path class="cls-11" d="M666.11 81.32h203.71v178.05H666.11z"/><path class="cls-12" d="M600.1 121.16h66.01v11.63H600.1z"/><path class="cls-13" d="M600.1 109.53h66.01v11.63H600.1z"/><path class="cls-14" d="M600.1 132.8h66.01v11.63H600.1z"/><path class="cls-13" d="M600.1 144.43h66.01v11.63H600.1z"/><path class="cls-14" d="M600.1 156.06h66.01v11.63H600.1z"/><path class="cls-13" d="M600.1 167.69h66.01v11.63H600.1z"/><path class="cls-14" d="M600.1 179.33h66.01v11.63H600.1z"/><path class="cls-13" d="M600.1 190.96h66.01v11.63H600.1z"/><path class="cls-14" d="M600.1 97.9h66.01v11.63H600.1zm4.93 50.19h4.31v4.31h-4.31z"/><path class="cls-15" d="M605.03 159.72h4.31v4.31h-4.31z"/><path class="cls-14" d="M605.03 171.35h4.31v4.31h-4.31z"/><path class="cls-15" d="M605.03 182.99h4.31v4.31h-4.31z"/><path class="cls-14" d="M605.03 194.62h4.31v4.31h-4.31z"/><path class="cls-15" d="M605.03 136.46h4.31v4.31h-4.31z"/><path class="cls-14" d="M605.03 113.19h4.31v4.31h-4.31z"/><path class="cls-15" d="M605.03 101.56h4.31v4.31h-4.31z"/><g class="cls-16"><path class="cls-17" d="M678.1 101.75h119.42v5.3H678.1zm0 22.29h71.34v5.3H678.1zm82.2 0h37.22v5.3H760.3zm48.08-22.29h52.9v5.3h-52.9zm0 22.29h52.9v5.3h-52.9zM678.1 224.34h71.34v5.3H678.1zm82.2 0h37.22v5.3H760.3zm48.08 0h52.9v5.3h-52.9zM678.1 112.89h49.63v5.3H678.1zm60.48 0h122.69v5.3H738.58zm-60.48 33.44h49.63v5.3H678.1zm60.48 0h122.69v5.3H738.58zM678.1 213.2h49.63v5.3H678.1zm60.48 0h122.69v5.3H738.58zm-60.48 22.29h49.63v5.3H678.1zm60.48 0h122.69v5.3H738.58zm80.66-78.02h42.04v5.3h-42.04zm-130.29 0h119.42v5.3H688.95zm141.14 33.44h31.18v5.3h-31.18zm-130.28 0h119.42v5.3H699.81zm-10.86-22.29h71.34v5.3h-71.34zm82.21 0h90.12v5.3h-90.12zm-60.49 33.43h71.34v5.3h-71.34zm82.2 0h68.41v5.3h-68.41zM678.1 135.18h94.61v5.3H678.1zm105.46 0h77.71v5.3h-77.71zm23.27 44.58h54.45v5.3h-54.45zm-107.02 0h96.16v5.3h-96.16z"/></g><path class="cls-12" d="M676.37 101.75h119.42v5.3H676.37z"/><path class="cls-18" d="M676.37 124.04h71.34v5.3h-71.34z"/><path class="cls-12" d="M758.57 124.04h37.22v5.3h-37.22z"/><path class="cls-18" d="M806.65 101.75h52.9v5.3h-52.9z"/><path class="cls-19" d="M806.65 124.04h52.9v5.3h-52.9z"/><path class="cls-20" d="M676.37 224.34h71.34v5.3h-71.34z"/><path class="cls-2" d="M758.57 224.34h37.22v5.3h-37.22z"/><path class="cls-12" d="M806.65 224.34h52.9v5.3h-52.9z"/><path class="cls-2" d="M676.37 112.89H726v5.3h-49.63z"/><path class="cls-20" d="M736.86 112.89h122.69v5.3H736.86z"/><path class="cls-12" d="M676.37 146.33H726v5.3h-49.63z"/><path class="cls-18" d="M736.86 146.33h122.69v5.3H736.86z"/><path class="cls-21" d="M676.37 213.2H726v5.3h-49.63z"/><path class="cls-18" d="M736.86 213.2h122.69v5.3H736.86z"/><path class="cls-2" d="M676.37 235.49H726v5.3h-49.63z"/><path class="cls-19" d="M736.86 235.49h122.69v5.3H736.86z"/><path class="cls-20" d="M817.51 157.47h42.04v5.3h-42.04z"/><path class="cls-19" d="M687.23 157.47h119.42v5.3H687.23zm141.14 33.44h31.18v5.3h-31.18z"/><path class="cls-18" d="M698.09 190.91h119.42v5.3H698.09z"/><path class="cls-21" d="M687.23 168.62h71.34v5.3h-71.34z"/><path class="cls-12" d="M769.43 168.62h90.12v5.3h-90.12zm-60.49 33.43h71.34v5.3h-71.34z"/><path class="cls-20" d="M791.15 202.05h68.41v5.3h-68.41zm-114.78-66.87h94.61v5.3h-94.61z"/><path class="cls-2" d="M781.84 135.18h77.71v5.3h-77.71z"/><path class="cls-20" d="M805.1 179.76h54.45v5.3H805.1z"/><path class="cls-2" d="M698.09 179.76h96.16v5.3h-96.16z"/><path class="cls-22" d="M660.05 81.32h6.05v178.05h-6.05z"/></svg>